# xmcd CD database file
#
# Track frame offsets:
#	150
#	7207
#	29629
#	45267
#	61920
#	81868
#	100968
#	121059
#	137184
#
# Disc length: 2037 seconds
#
# Revision: 2
# Processed by: cddbd v1.5.2PL0 Copyright (c) Steve Scherf et al.
# Submitted via: CDex 1.70beta2
#
DISCID=7307f309
DTITLE=IRON　ATTACK - DEAD HEAT REFRAIN
DYEAR=2008
DGENRE=東方アレンジ
TTITLE0=Night After Sorrow (永夜抄)
TTITLE1=Eyes of Darkness (幻視の夜)
TTITLE2=Peace by Force (蠢々秋月)
TTITLE3=Never Rust (クリスタライズシルバー)
TTITLE4=Cavalrymaid (フラワリングナイト)
TTITLE5=Cloud Unties Blue (雲外蒼天)
TTITLE6=Ghost Cave (暗闇の風穴)
TTITLE7=Kids of the Century (科学世紀の少年少女)
TTITLE8=Final Revenge (エクステンドアッシュ)
EXTD=YEAR: 2008
EXTT0=
EXTT1=
EXTT2=
EXTT3=
EXTT4=
EXTT5=
EXTT6=
EXTT7=
EXTT8=
PLAYORDER=
